<?xml version="1.0" encoding="utf-8"?>
<!-- Generator: Adobe Illustrator 24.1.1, SVG Export Plug-In . SVG Version: 6.00 Build 0)  -->
<svg version="1.1" id="Layer_1" xmlns="http://www.w3.org/2000/svg" xmlns:xlink="http://www.w3.org/1999/xlink" x="0px" y="0px"
	 viewBox="0 0 512 512" style="enable-background:new 0 0 512 512;" xml:space="preserve">
<g>
	<path d="M465.2,390.1L289.1,16.2c-4.5-9.4-13.7-15.6-24.1-16.1c-10.4-0.7-20.3,4.4-25.7,13.3l-191,309.3
		c-5.9,9.5-5.8,21.6,0.3,31.1l93.4,144.6c7.3,11.1,21,16.2,33.7,12.4l271-80.1c8.3-2.4,15.1-8.3,18.6-16.1
		C468.9,406.7,468.9,397.8,465.2,390.1L465.2,390.1z M425.8,406.1l-229.9,68c-7,2.1-13.7-4-12.3-11.1l82.1-393.3
		c1.5-7.4,11.7-8.5,14.9-1.7l152.1,322.9c1.4,2.9,1.4,6.3,0,9.2C431.4,403,428.9,405.2,425.8,406.1L425.8,406.1z"/>
</g>
</svg>
